<svg width="14" height="13" viewBox="0 0 14 13" fill="none" xmlns="http://www.w3.org/2000/svg">
<path d="M3.81236 1.70721C3.62106 1.70721 3.47075 1.7352 3.36143 1.79117C3.26123 1.84715 3.18835 1.97309 3.1428 2.169C3.10637 2.36491 3.08815 2.67743 3.08815 3.10657V4.47793C3.08815 4.83244 3.03349 5.1403 2.92417 5.40151C2.82397 5.65339 2.70554 5.85863 2.5689 6.01722C2.43226 6.17582 2.30472 6.29709 2.1863 6.38106C2.2865 6.45569 2.40493 6.5723 2.54157 6.73089C2.68733 6.88016 2.81486 7.06674 2.92417 7.29064C3.03349 7.5052 3.08815 7.74776 3.08815 8.0183V9.69753C3.08815 10.1173 3.10637 10.4252 3.1428 10.6211C3.18835 10.817 3.26123 10.943 3.36143 10.9989C3.47075 11.0549 3.62106 11.0829 3.81236 11.0829H4.31794V12.7901H3.23846C2.98339 12.7901 2.72832 12.7854 2.47325 12.7761C2.22729 12.7668 1.99955 12.7155 1.79003 12.6222C1.58051 12.5382 1.41198 12.375 1.28445 12.1324C1.16603 11.8992 1.10681 11.5587 1.10681 11.1109V8.80194C1.10681 8.52207 1.06582 8.26085 0.983835 8.0183C0.901848 7.76642 0.778869 7.56118 0.614897 7.40258C0.450924 7.24399 0.245959 7.16469 0 7.16469V5.54144C0.245959 5.53211 0.450924 5.45282 0.614897 5.30355C0.778869 5.14496 0.901848 4.94439 0.983835 4.70183C1.06582 4.44995 1.10681 4.18407 1.10681 3.9042V1.69322C1.10681 1.24543 1.16603 0.904916 1.28445 0.671691C1.40288 0.438465 1.56229 0.275207 1.7627 0.181917C1.97222 0.0886262 2.20452 0.0373163 2.45959 0.0279867C2.71465 0.00932903 2.97428 0 3.23846 0H4.31794V1.70721H3.81236ZM14 6.507C14 7.45856 13.8861 8.34948 13.6584 9.17976C13.4398 10.01 13.1574 10.747 12.8112 11.3907C12.465 12.0438 12.0961 12.5802 11.7044 13L10.133 12.2583C10.4883 11.8385 10.8071 11.3441 11.0895 10.775C11.3719 10.2153 11.5951 9.58091 11.759 8.87191C11.923 8.15357 12.005 7.36527 12.005 6.507C12.005 5.64873 11.923 4.86509 11.759 4.15608C11.5951 3.43775 11.3719 2.79871 11.0895 2.23897C10.8071 1.6699 10.4883 1.18012 10.133 0.769645L11.7044 0.0139933C12.0961 0.4338 12.465 0.970219 12.8112 1.62325C13.1574 2.27628 13.4398 3.01794 13.6584 3.84822C13.8861 4.66918 14 5.55544 14 6.507Z" fill="#127475"/>
</svg>
