<svg width="17" height="20" viewBox="0 0 17 20" fill="none" xmlns="http://www.w3.org/2000/svg">
<path d="M0 0L1.5472 17.9946L8.48969 20L15.4516 17.9873L17 0H0ZM13.7857 4.12265L13.2707 10.1172L13.2722 10.1496L13.2701 10.2241V10.2234L12.9042 14.4149L12.8639 14.7873L8.5 16.0377V16.0379L8.49662 16.0409L4.14029 14.7835L3.84531 11.3181H5.98154L6.13311 13.0802L8.50062 13.7449L8.5 13.7462V13.7459L10.8763 13.0717L11.1274 10.2022H6.15988L6.11726 9.71713L6.02017 8.5807L5.96923 7.97048H11.3162L11.5107 5.73874H3.36676L3.32414 5.25398L3.2272 4.11723L3.17611 3.50701H13.8367L13.7857 4.12265Z" fill="#127475"/>
</svg>
