<svg width="17" height="20" viewBox="0 0 17 20" fill="none" xmlns="http://www.w3.org/2000/svg">
<path d="M0.00184817 0.66208L1.26387 17.2682C1.28281 17.5175 1.44692 17.7302 1.67875 17.8058L8.31952 19.9713C8.43696 20.0096 8.56304 20.0096 8.68047 19.9713L15.3212 17.8058C15.5531 17.7302 15.7172 17.5175 15.7361 17.2682L16.9981 0.66208C17.0253 0.305058 16.751 0 16.4028 0H0.597228C0.249083 0 -0.0252492 0.305058 0.00184817 0.66208ZM13.8375 4.81816C13.7948 5.38017 13.3263 5.81439 12.7627 5.81439H6.84473C6.14578 5.81439 5.6008 6.41986 5.67408 7.11495C5.73724 7.71396 6.2424 8.16866 6.84473 8.16866H9.42898C11.6704 8.16866 13.438 10.0757 13.2681 12.3106C13.1499 13.8657 12.1053 15.1958 10.6226 15.6793L9.99799 15.883C9.02457 16.2004 7.97547 16.2004 7.00205 15.883L5.2073 15.2978C4.43269 15.0452 3.88695 14.3502 3.82521 13.5378L3.75514 12.6159C3.70421 11.9457 4.23425 11.3739 4.90636 11.3739H5.0844C5.62371 11.3739 6.0609 11.8111 6.0609 12.3504C6.0609 12.7896 6.35416 13.1748 6.77756 13.2917L7.89659 13.6006C8.33342 13.7212 8.7948 13.7208 9.23144 13.5996L10.0016 13.3857C10.6315 13.2107 11.0831 12.6581 11.1291 12.0059C11.192 11.1123 10.4841 10.3527 9.58824 10.3527H6.68547C4.93533 10.3527 3.48067 9.0044 3.34805 7.25929C3.2004 5.31643 4.73701 3.65862 6.68547 3.65862H12.7627C13.3902 3.65862 13.885 4.19249 13.8375 4.81816Z" fill="#127475"/>
</svg>
