<svg width="22" height="22" viewBox="0 0 22 22" fill="none" xmlns="http://www.w3.org/2000/svg">
<path d="M16.3681 9.78209C15.5795 9.84465 14.9183 10.1283 14.4261 10.6166C13.9192 11.1193 13.6773 11.7324 13.6773 12.5107C13.6773 13.6747 14.155 14.4883 15.2208 15.1329C15.4919 15.2956 15.8612 15.473 16.4996 15.7482C17.3694 16.1217 17.6928 16.2988 17.8994 16.5201C18.1539 16.7935 18.2248 17.2295 18.0643 17.5632C18.0329 17.628 17.9517 17.7364 17.8786 17.8093C17.6325 18.0576 17.2443 18.1888 16.7627 18.1888C15.9491 18.1888 15.3421 17.8551 14.8541 17.1333C14.7873 17.0373 14.7267 16.9581 14.7184 16.9581C14.6995 16.9581 13.1123 17.8738 13.0789 17.9052C13.058 17.9241 13.0747 17.9678 13.1562 18.1012C13.7905 19.1693 14.7812 19.7949 16.1204 19.9745C16.4707 20.0227 17.1278 20.0204 17.4637 19.9745C18.3065 19.8555 18.9385 19.5761 19.4288 19.1006C19.9501 18.5978 20.2068 17.9469 20.2068 17.1313C20.2068 16.61 20.1212 16.2032 19.9273 15.8005C19.7939 15.5252 19.6604 15.3395 19.431 15.1059C18.9908 14.6596 18.4213 14.3215 17.2846 13.8335C16.4251 13.4642 16.1373 13.3057 15.9474 13.1033C15.7658 12.9092 15.6888 12.682 15.7055 12.3981C15.7202 12.1729 15.7828 12.0205 15.9204 11.8726C16.1187 11.6576 16.3481 11.5681 16.7026 11.57C17.1053 11.57 17.3661 11.6743 17.6308 11.9413C17.7248 12.033 17.8458 12.1812 17.9019 12.2708C17.9667 12.3731 18.0145 12.4293 18.0312 12.4231C18.0854 12.4001 19.602 11.4199 19.602 11.4051C19.602 11.3968 19.5247 11.2758 19.431 11.134C19.2308 10.8337 18.8699 10.4581 18.6216 10.2934C18.1627 9.98897 17.6725 9.83242 17.0257 9.78459C16.7082 9.75928 16.6665 9.75928 16.3681 9.78209ZM9.87447 13.5724L9.86839 17.0812C9.86818 17.2001 9.85266 17.3186 9.8222 17.4336V17.4336C9.76158 17.661 9.69067 17.7965 9.56555 17.9216C9.39036 18.0968 9.16513 18.1699 8.78947 18.1719C8.25336 18.1741 7.93219 17.9466 7.55875 17.3082C7.49813 17.2081 7.44391 17.1266 7.43779 17.1288C7.42945 17.133 7.05184 17.3605 6.59915 17.6335L5.89481 18.0614C5.82724 18.1024 5.80245 18.1885 5.83781 18.2592V18.2592C6.21125 19.0038 6.85775 19.5672 7.63605 19.8258C8.45801 20.0991 9.51355 20.0741 10.2874 19.7632C11.2156 19.3878 11.76 18.6118 11.9041 17.4581C11.9166 17.3413 11.9249 16.0374 11.9249 13.5843V10.9088C11.9249 10.3443 11.4673 9.88664 10.9028 9.88664V9.88664V9.88664C10.3391 9.88664 9.88178 10.3429 9.88051 10.9066L9.87447 13.5724ZM2.83221 0.706055H20.1512C21.1709 0.706055 21.9917 1.5269 21.9917 2.54656V19.8655C21.9917 20.8852 21.1709 21.7061 20.1512 21.7061H2.83221C1.81255 21.7061 0.991699 20.8852 0.991699 19.8655V2.54656C0.991699 1.5269 1.81255 0.706055 2.83221 0.706055Z" fill="#127475"/>
</svg>
