<svg width="21" height="22" viewBox="0 0 21 22" fill="none" xmlns="http://www.w3.org/2000/svg">
<path d="M0 2C0 0.89543 0.895431 0 2 0H19C20.1046 0 21 0.895431 21 2V19.0195C21 20.1241 20.1046 21.0195 19 21.0195H2C0.89543 21.0195 0 20.1241 0 19.0195V2Z" fill="#127475"/>
<path d="M5.52172 17.5654L7.12871 16.592C7.43879 17.1422 7.72081 17.6077 8.39732 17.6077C9.04578 17.6077 9.45471 17.3538 9.45471 16.3662V9.65001H11.4281V16.3942C11.4281 18.44 10.23 19.3713 8.4819 19.3713C6.90321 19.3713 5.98684 18.5529 5.52164 17.5653L5.52172 17.5654ZM12.5 17.3538L14.1069 16.4226C14.5299 17.114 15.0797 17.6219 16.0522 17.6219C16.87 17.6219 17.3914 17.2127 17.3914 16.6483C17.3914 15.9711 16.8557 15.7311 15.9536 15.3362L15.4603 15.1244C14.0365 14.5178 13.0921 13.7559 13.0921 12.1474C13.0921 10.6658 14.2197 9.53703 15.9819 9.53703C17.2364 9.53703 18.1386 9.9745 18.787 11.1174L17.2504 12.1051C16.912 11.4984 16.5457 11.2586 15.9818 11.2586C15.4038 11.2586 15.0373 11.6254 15.0373 12.1051C15.0373 12.6977 15.4038 12.9377 16.2495 13.3045L16.7429 13.5161C18.4204 14.2358 19.3648 14.9694 19.3648 16.6201C19.3648 18.3981 17.9693 19.3715 16.0945 19.3715C14.262 19.3715 13.0779 18.4968 12.5 17.3538" fill="#151515"/>
</svg>
