<svg width="19" height="19" viewBox="0 0 19 19" fill="none" xmlns="http://www.w3.org/2000/svg">
<path d="M1.20749 4.29912C-0.475237 6.71613 -0.267297 9.86094 1.02022 12.4295C1.04887 12.4924 1.08225 12.5518 1.11356 12.6123C1.13209 12.6522 1.15239 12.6912 1.17441 12.7293C1.18386 12.7505 1.19922 12.7739 1.21162 12.7949C1.2323 12.8368 1.25416 12.8755 1.27631 12.9154C1.31766 12.9851 1.35901 13.056 1.40036 13.1251C1.4237 13.1635 1.44585 13.2019 1.47214 13.2406C1.51615 13.315 1.56695 13.3888 1.61274 13.463C1.63341 13.4949 1.65261 13.5259 1.67476 13.5569C1.74063 13.6573 1.80709 13.7569 1.88005 13.8546C1.88005 13.8576 1.883 13.86 1.88536 13.8614C1.89659 13.878 1.90899 13.8939 1.91992 13.9087C1.98195 13.9938 2.04398 14.0765 2.10896 14.1586C2.13081 14.1887 2.15563 14.2191 2.17778 14.2487C2.23685 14.3204 2.29475 14.3919 2.35264 14.4628C2.37479 14.4885 2.39665 14.5154 2.42028 14.5414C2.49984 14.6373 2.58158 14.7313 2.66543 14.8235C2.66839 14.827 2.67105 14.8305 2.67636 14.8338C2.75611 14.9212 2.83764 15.0075 2.92034 15.0928C2.94663 15.1191 2.97262 15.1445 3.00157 15.1723C3.06507 15.2364 3.12858 15.3011 3.19592 15.3643C3.22368 15.3906 3.25115 15.416 3.27744 15.4414C3.36546 15.5241 3.45378 15.6068 3.54623 15.6859C3.54741 15.6859 3.54889 15.6889 3.55007 15.6895C3.56513 15.7028 3.58197 15.7161 3.59585 15.7291C3.67678 15.7985 3.7583 15.8673 3.84101 15.9358C3.87409 15.9633 3.90717 15.9893 3.94025 16.0162C4.00907 16.0708 4.0779 16.1231 4.14701 16.1757C4.18246 16.2022 4.21849 16.2297 4.25571 16.2584C4.33014 16.3139 4.40753 16.3682 4.48314 16.422C4.51061 16.4421 4.53808 16.4622 4.56732 16.4808C4.57412 16.4867 4.58209 16.4926 4.58918 16.4982C4.66509 16.5478 4.73687 16.5957 4.8113 16.645C4.84409 16.6663 4.87628 16.6869 4.90759 16.7082C5.02338 16.7821 5.13916 16.8529 5.25347 16.9218C5.28655 16.9395 5.31963 16.9578 5.35124 16.9761C5.43689 17.0257 5.52373 17.0748 5.61175 17.1217C5.6599 17.1483 5.70834 17.1719 5.75767 17.1968C5.81733 17.2292 5.87906 17.2623 5.94257 17.2945C5.95793 17.3007 5.97299 17.3063 5.98687 17.3137C6.01287 17.3255 6.03768 17.3385 6.06249 17.3509C6.15907 17.3985 6.25802 17.4434 6.36022 17.4889C6.37942 17.498 6.4001 17.506 6.42077 17.5163C6.53508 17.566 6.64939 17.6138 6.76636 17.6599C6.79442 17.6702 6.82159 17.6826 6.85083 17.6921C6.95687 17.7334 7.06704 17.7742 7.17574 17.8132C7.18962 17.8191 7.20232 17.8232 7.21591 17.828C7.33701 17.8693 7.45693 17.9086 7.57981 17.9464C7.60846 17.9547 7.6377 17.9647 7.66782 17.9724C7.79336 18.0102 7.91446 18.0545 8.04295 18.0787C16.1774 19.5615 18.541 13.1901 18.541 13.1901C16.5552 15.7745 13.0315 16.4574 9.69377 15.6977C9.56971 15.67 9.44714 15.6304 9.3216 15.5932C9.29099 15.5848 9.26065 15.5754 9.23063 15.5651C9.11055 15.5286 8.99111 15.49 8.87235 15.4493C8.8558 15.4434 8.83808 15.4375 8.82125 15.4307C8.71538 15.3937 8.61021 15.3547 8.50579 15.3138C8.47684 15.3011 8.44672 15.2907 8.41747 15.2798C8.30262 15.2343 8.18869 15.1866 8.07573 15.1365C8.05122 15.1277 8.03024 15.1171 8.00691 15.1076C7.91108 15.0635 7.81558 15.0187 7.7204 14.9732C7.69146 14.9608 7.66517 14.9466 7.63622 14.9324C7.56179 14.897 7.48735 14.858 7.41469 14.8193C7.3633 14.7933 7.31368 14.7691 7.26553 14.7425C7.17603 14.6941 7.08624 14.643 6.99674 14.5937C6.96767 14.5749 6.9377 14.5575 6.90695 14.5417C6.79015 14.4726 6.67445 14.4017 6.55989 14.329C6.52809 14.3089 6.49687 14.2879 6.46626 14.2661C6.38262 14.2129 6.2999 14.1582 6.21815 14.1022L6.1384 14.0449C6.05966 13.9895 5.98148 13.9334 5.90387 13.8765C5.86984 13.8498 5.83538 13.8237 5.80049 13.7982C5.7302 13.7439 5.6599 13.6901 5.5899 13.6337C5.55918 13.6083 5.52787 13.5832 5.49744 13.5587C5.40814 13.4864 5.3203 13.4124 5.23397 13.3366C5.226 13.3277 5.21359 13.32 5.20385 13.3123C5.1114 13.2296 5.01924 13.1452 4.92827 13.061C4.9005 13.035 4.87746 13.0108 4.8497 12.9857C4.78383 12.921 4.71737 12.8578 4.65269 12.7922L4.57412 12.713C4.49084 12.6289 4.4095 12.543 4.33014 12.4552C4.32566 12.4514 4.3215 12.4473 4.31774 12.4428C4.23405 12.3503 4.15182 12.2566 4.0711 12.1616C4.04895 12.1362 4.02827 12.1099 4.00642 12.0851C3.94705 12.0121 3.88768 11.9383 3.82713 11.8653C3.80793 11.837 3.78577 11.8104 3.76362 11.7826C3.69374 11.6926 3.6254 11.6014 3.55863 11.5091C1.70637 8.98251 1.03794 5.49536 2.51952 2.63352" fill="#127475"/>
<path d="M6.43023 2.26135C5.21065 4.01142 5.27829 6.35519 6.2279 8.20716C6.3852 8.5187 6.56475 8.81849 6.76518 9.1042C6.94713 9.36589 7.14828 9.67603 7.39225 9.88634C7.47791 9.98292 7.57006 10.0766 7.66517 10.1708L7.73695 10.2417C7.82792 10.3294 7.92008 10.4156 8.01519 10.4995C8.01814 10.5031 8.02346 10.5066 8.02641 10.5102C8.02759 10.5102 8.02907 10.5131 8.02907 10.5131C8.13511 10.6067 8.24262 10.6957 8.35427 10.7825C8.38027 10.8011 8.4039 10.8221 8.42989 10.8404C8.54036 10.9266 8.65348 11.009 8.7675 11.0906C8.77163 11.0906 8.77458 11.0947 8.7802 11.0971C8.82952 11.1325 8.8821 11.1659 8.93586 11.2004C8.95919 11.2152 8.984 11.2332 9.00734 11.2477C9.09122 11.3023 9.17422 11.3531 9.25958 11.4037C9.27199 11.4096 9.28439 11.4167 9.2968 11.4229C9.36828 11.4663 9.44419 11.5088 9.5201 11.5475C9.54639 11.5634 9.57238 11.5759 9.59867 11.5903C9.65095 11.6163 9.70323 11.6441 9.75433 11.671C9.76112 11.6745 9.77087 11.6783 9.77914 11.6822C9.88665 11.7354 9.99565 11.7841 10.1029 11.8328L10.1758 11.8624C10.2644 11.9008 10.3536 11.938 10.442 11.9716C10.4818 11.9846 10.519 12.0003 10.5563 12.0136C10.6375 12.0425 10.7205 12.0706 10.8017 12.0975L10.9134 12.1335C11.0291 12.1701 11.1464 12.2168 11.269 12.236C17.5474 13.2772 19 8.4405 19 8.4405C17.6921 10.325 15.1602 11.2217 12.4596 10.5205C12.3385 10.4895 12.2198 10.4549 12.104 10.4171C12.0681 10.4073 12.0326 10.396 11.9977 10.3831C11.9138 10.3566 11.8296 10.3279 11.7484 10.2975C11.7106 10.2841 11.673 10.2702 11.6355 10.2558C11.546 10.2207 11.4563 10.1861 11.3694 10.1474C11.3434 10.1371 11.3186 10.1282 11.2979 10.1173C11.1871 10.0689 11.0772 10.0184 10.9683 9.96579L10.8044 9.88102C10.7713 9.86448 10.7397 9.84853 10.7107 9.83347C10.6375 9.79566 10.5701 9.75549 10.501 9.71502L10.4514 9.68814C10.3675 9.63704 10.2807 9.58624 10.2009 9.53307C10.1732 9.51742 10.1498 9.4994 10.1238 9.48286C10.0683 9.44738 10.0132 9.41135 9.95843 9.37476C9.84418 9.29447 9.73153 9.21195 9.62052 9.12723C9.59453 9.10597 9.56972 9.08677 9.54491 9.0658C8.35959 8.13302 7.42268 6.85702 6.97903 5.41207C6.51028 3.91129 6.61366 2.2265 7.4212 0.860413" fill="#127475"/>
<path d="M10.8209 0.739312C10.1017 1.79497 10.0326 3.10641 10.5285 4.27046C11.0552 5.50807 12.1315 6.47895 13.3856 6.93854C13.4364 6.95863 13.4875 6.97517 13.5401 6.99319C13.5637 6.99998 13.5853 7.00766 13.6104 7.01504C13.6834 7.03779 13.7563 7.06526 13.8319 7.08003C17.3005 7.74963 18.2406 5.29983 18.4929 4.93948C17.6673 6.12627 16.2823 6.41042 14.5831 5.99808C14.4446 5.96273 14.308 5.92014 14.174 5.87048C14.0076 5.81136 13.8443 5.74403 13.6845 5.66875C13.3829 5.5227 13.0963 5.3475 12.8289 5.14565C11.3074 3.99222 10.3646 1.79201 11.357 0" fill="#127475"/>
</svg>
