<svg width="21" height="19" viewBox="0 0 21 19" fill="none" xmlns="http://www.w3.org/2000/svg">
<path d="M17.2662 6.05584C17.0484 5.98086 16.8226 5.90991 16.5902 5.84282C16.6284 5.68691 16.6635 5.53301 16.6946 5.38174C17.2064 2.89774 16.8718 0.896622 15.7293 0.237767C14.6337 -0.393988 12.8421 0.264718 11.0326 1.83945C10.8586 1.99088 10.6841 2.1512 10.5097 2.31922C10.3935 2.20805 10.2775 2.10062 10.1618 1.99787C8.26537 0.314059 6.36453 -0.39552 5.22314 0.265241C4.12866 0.898827 3.80455 2.78007 4.26518 5.13417C4.30966 5.36155 4.36165 5.59376 4.42045 5.82985C4.15143 5.90621 3.89171 5.98763 3.64321 6.07424C1.41991 6.84938 0 8.06422 0 9.32433C0 10.6258 1.52427 11.9312 3.84002 12.7227C4.02277 12.7851 4.2124 12.8442 4.40782 12.9003C4.34438 13.1556 4.28921 13.4058 4.2429 13.6499C3.80369 15.9631 4.14668 17.7999 5.23824 18.4295C6.36573 19.0797 8.25796 18.4114 10.1005 16.8008C10.2462 16.6734 10.3923 16.5384 10.5387 16.3969C10.7285 16.5797 10.918 16.7526 11.1064 16.9148C12.8912 18.4507 14.6539 19.0708 15.7444 18.4395C16.8708 17.7874 17.2369 15.8143 16.7616 13.4136C16.7253 13.2302 16.6831 13.0429 16.6357 12.8523C16.7685 12.813 16.899 12.7725 17.0262 12.7303C19.4336 11.9326 21 10.6432 21 9.32433C21 8.05966 19.5343 6.83663 17.2662 6.05584ZM16.7441 11.8787C16.6292 11.9168 16.5114 11.9535 16.3913 11.9891C16.1256 11.1477 15.7669 10.2531 15.3279 9.3287C15.7468 8.42635 16.0916 7.54311 16.35 6.70719C16.5648 6.76935 16.7733 6.83491 16.9742 6.9041C18.9175 7.57309 20.1029 8.56219 20.1029 9.32433C20.1029 10.1361 18.8227 11.19 16.7441 11.8787ZM15.8816 13.5878C16.0917 14.6494 16.1217 15.6091 15.9825 16.3594C15.8574 17.0336 15.6059 17.4831 15.2949 17.6631C14.6331 18.0462 13.2178 17.5482 11.6915 16.2348C11.5165 16.0842 11.3403 15.9235 11.1635 15.7533C11.7552 15.1061 12.3466 14.3538 12.9238 13.5183C13.939 13.4282 14.8981 13.2809 15.7679 13.0798C15.8107 13.2526 15.8488 13.4221 15.8816 13.5878ZM7.15937 17.5969C6.51278 17.8253 5.9978 17.8318 5.6865 17.6523C5.0241 17.2702 4.74872 15.7955 5.12435 13.8172C5.16737 13.5906 5.21858 13.3579 5.2776 13.12C6.13786 13.3102 7.08996 13.4471 8.10759 13.5296C8.68865 14.3472 9.29712 15.0987 9.9103 15.7568C9.77633 15.8861 9.64288 16.0092 9.51019 16.1253C8.69542 16.8375 7.87893 17.3428 7.15937 17.5969ZM4.13016 11.8738C3.10618 11.5238 2.26054 11.0689 1.68089 10.5725C1.16004 10.1265 0.897076 9.68366 0.897076 9.32433C0.897076 8.55965 2.03712 7.5843 3.93851 6.92137C4.16922 6.84093 4.41073 6.76512 4.66136 6.69392C4.92414 7.54872 5.26886 8.44243 5.68486 9.34616C5.26348 10.2633 4.91386 11.1713 4.6485 12.0361C4.46983 11.9847 4.29672 11.9307 4.13016 11.8738ZM5.14558 4.96189C4.75092 2.94496 5.01303 1.42345 5.6726 1.04166C6.37515 0.634926 7.92869 1.21484 9.56607 2.66872C9.67073 2.76165 9.77581 2.85891 9.88118 2.95953C9.27103 3.61469 8.66813 4.36056 8.09222 5.17335C7.10458 5.26489 6.15917 5.41194 5.28994 5.60886C5.23529 5.38903 5.18688 5.17305 5.14558 4.96189ZM14.204 7.19865C13.9962 6.83973 13.7829 6.4893 13.5654 6.14843C14.2355 6.23314 14.8774 6.34557 15.4803 6.48317C15.2993 7.06323 15.0737 7.66971 14.8082 8.29145C14.6177 7.9298 14.4162 7.56516 14.204 7.19865ZM10.51 3.60067C10.9238 4.04897 11.3382 4.54948 11.7458 5.09253C11.3351 5.07313 10.9193 5.06304 10.5 5.06304C10.0847 5.06304 9.67196 5.07291 9.26378 5.09197C9.67178 4.55397 10.0898 4.05412 10.51 3.60067ZM6.79234 7.20486C6.58477 7.56479 6.38704 7.92745 6.19954 8.29078C5.93829 7.67121 5.7148 7.06196 5.53224 6.47368C6.13139 6.33959 6.77033 6.22996 7.4361 6.14686C7.21556 6.49087 7.00047 6.84388 6.79234 7.20478V7.20486ZM7.45527 12.5658C6.76741 12.489 6.11887 12.3851 5.51986 12.2547C5.70534 11.6559 5.93377 11.0336 6.20055 10.4007C6.38853 10.7638 6.58705 11.1266 6.79589 11.4873H6.79593C7.00866 11.8548 7.22905 12.2148 7.45527 12.5658ZM10.5348 15.1112C10.1096 14.6525 9.68553 14.145 9.27133 13.5991C9.67342 13.6149 10.0834 13.623 10.5 13.623C10.928 13.623 11.3512 13.6134 11.7677 13.5948C11.3587 14.1505 10.9458 14.6587 10.5348 15.1112ZM14.8167 10.3685C15.0974 11.0082 15.334 11.6272 15.5219 12.2158C14.913 12.3547 14.2556 12.4666 13.563 12.5497C13.781 12.2042 13.9962 11.8478 14.2076 11.4811C14.4215 11.1102 14.6247 10.7387 14.8167 10.3685ZM13.4305 11.033C13.1023 11.6021 12.7652 12.1455 12.4231 12.6584C11.8 12.7029 11.1562 12.7259 10.5 12.7259C9.84649 12.7259 9.21081 12.7056 8.59868 12.6658C8.24275 12.1462 7.89841 11.6013 7.57223 11.0379H7.57231C7.24699 10.476 6.94758 9.90932 6.67628 9.34586C6.94751 8.78109 7.24613 8.21381 7.56958 7.65293L7.56951 7.65304C7.89381 7.09066 8.23513 6.54836 8.58777 6.032C9.21231 5.98479 9.85273 5.96015 10.5 5.96015H10.5C11.1501 5.96015 11.7914 5.98497 12.4157 6.03259C12.763 6.54518 13.102 7.08573 13.4276 7.64818C13.7569 8.21695 14.0593 8.78045 14.3329 9.33311C14.0602 9.89526 13.7584 10.4644 13.4305 11.033ZM15.2812 1.01497C15.9844 1.4205 16.2579 3.05601 15.816 5.20067C15.7878 5.33752 15.7561 5.47691 15.7216 5.61817C14.8504 5.41714 13.9043 5.26754 12.9138 5.17462C12.3368 4.3529 11.7388 3.60587 11.1386 2.95912C11.3 2.80388 11.4611 2.65586 11.6216 2.51617C13.1719 1.16695 14.621 0.634254 15.2812 1.01497ZM10.5 7.4491C11.5356 7.4491 12.3752 8.28865 12.3752 9.32433C12.3752 10.36 11.5356 11.1996 10.5 11.1996C9.46436 11.1996 8.62477 10.36 8.62477 9.32433C8.62477 8.28865 9.46436 7.4491 10.5 7.4491Z" fill="#127475"/>
</svg>
