<svg width="25" height="19" viewBox="0 0 25 19" fill="none" xmlns="http://www.w3.org/2000/svg">
<path d="M21.527 10.7778C20.6548 10.7823 19.8968 10.9924 19.262 11.3029C19.0292 10.8417 18.7963 10.4307 18.7552 10.1294C18.7095 9.77775 18.6547 9.56313 18.7095 9.14303C18.7643 8.72293 19.0109 8.12474 19.0063 8.07907C19.0018 8.03341 18.9515 7.81879 18.4492 7.81422C17.9469 7.80966 17.5131 7.91012 17.4629 8.04254C17.4127 8.17497 17.3168 8.47634 17.2529 8.78686C17.1661 9.24349 16.2483 10.8737 15.7231 11.7276C15.5542 11.3942 15.4081 11.102 15.3761 10.8691C15.3304 10.5175 15.2756 10.3029 15.3304 9.88278C15.3852 9.46268 15.6318 8.86448 15.6272 8.81882C15.6227 8.77316 15.5724 8.55854 15.0701 8.55397C14.5678 8.54941 14.134 8.64987 14.0838 8.78229C14.0336 8.91471 13.9788 9.22523 13.8738 9.5266C13.7687 9.82798 12.5495 12.5495 12.2299 13.2527C12.0655 13.6135 11.9239 13.9012 11.8235 14.0975C11.8235 14.0975 11.8189 14.1112 11.8052 14.134C11.7184 14.303 11.6682 14.3943 11.6682 14.3943C11.6682 14.3943 11.6682 14.3943 11.6682 14.3989C11.5997 14.5222 11.5267 14.6363 11.4901 14.6363C11.4627 14.6363 11.4125 14.3076 11.4993 13.8601C11.6819 12.9148 12.1157 11.4445 12.1111 11.3942C12.1111 11.3668 12.1933 11.1111 11.828 10.9787C11.4719 10.8463 11.344 11.0655 11.312 11.0655C11.2801 11.0655 11.2572 11.1431 11.2572 11.1431C11.2572 11.1431 11.6545 9.49007 10.4992 9.49007C9.77775 9.49007 8.78228 10.2801 8.28912 10.9924C7.9786 11.1614 7.31648 11.5221 6.6087 11.9102C6.33929 12.0609 6.06074 12.2116 5.80046 12.3532C5.78219 12.3349 5.76393 12.3121 5.74566 12.2938C4.34836 10.8006 1.76381 9.74579 1.8734 7.74116C1.9145 7.01055 2.16565 5.09268 6.83702 2.76384C10.6819 0.86881 13.7413 1.39394 14.271 2.55836C15.029 4.22051 12.6317 7.30736 8.65899 7.75486C7.14296 7.92382 6.34842 7.33932 6.1475 7.12014C5.93745 6.89182 5.90548 6.87812 5.82786 6.92379C5.7 6.99228 5.78219 7.19777 5.82786 7.31649C5.94658 7.627 6.43518 8.17497 7.26169 8.44438C7.9923 8.68183 9.76861 8.81425 11.9194 7.98318C14.3258 7.05164 16.2072 4.46253 15.6546 2.29351C15.1021 0.0925313 11.449 -0.633518 7.9923 0.59483C5.93745 1.32544 3.70907 2.47616 2.10628 3.97393C0.202116 5.7548 -0.0992624 7.30279 0.024029 7.95121C0.466965 10.2527 3.64058 11.7504 4.91002 12.86C4.84609 12.8966 4.78673 12.9285 4.7365 12.9559C4.10178 13.271 1.68161 14.5359 1.07886 15.8738C0.393903 17.3899 1.18845 18.4766 1.71358 18.6228C3.34376 19.0748 5.01961 18.262 5.91918 16.9195C6.81875 15.577 6.70916 13.8327 6.29362 13.0336C6.28906 13.0244 6.28449 13.0153 6.27536 13.0062C6.43975 12.9103 6.6087 12.8098 6.77309 12.7139C7.0973 12.5221 7.41694 12.344 7.69092 12.1979C7.53567 12.6226 7.42151 13.1295 7.36671 13.8601C7.29822 14.7185 7.64983 15.8327 8.11103 16.2711C8.31651 16.4629 8.55853 16.4675 8.71379 16.4675C9.25262 16.4675 9.49463 16.0199 9.76405 15.4903C10.0928 14.8418 10.3896 14.0884 10.3896 14.0884C10.3896 14.0884 10.0198 16.125 11.0244 16.125C11.3897 16.125 11.7595 15.6501 11.9239 15.4081C11.9239 15.4126 11.9239 15.4126 11.9239 15.4126C11.9239 15.4126 11.9331 15.3989 11.9513 15.367C11.9879 15.3076 12.0107 15.2711 12.0107 15.2711C12.0107 15.2711 12.0107 15.2665 12.0107 15.2619C12.1568 15.0062 12.4856 14.4263 12.9742 13.4628C13.6043 12.2207 14.2117 10.6682 14.2117 10.6682C14.2117 10.6682 14.2665 11.0472 14.4537 11.6774C14.5633 12.0472 14.7916 12.4536 14.9742 12.8463C14.8281 13.0518 14.7368 13.166 14.7368 13.166C14.7368 13.166 14.7368 13.166 14.7414 13.1705C14.6226 13.3258 14.4948 13.4948 14.3532 13.6591C13.8555 14.2528 13.2619 14.9332 13.1797 15.1295C13.0838 15.3624 13.1066 15.5313 13.2893 15.6683C13.4217 15.7688 13.6591 15.7825 13.9012 15.7688C14.3487 15.7368 14.6637 15.6272 14.819 15.5587C15.061 15.472 15.3441 15.3396 15.609 15.1432C16.0976 14.7825 16.3944 14.2665 16.367 13.5861C16.3533 13.2116 16.23 12.8372 16.0793 12.4856C16.125 12.4217 16.1661 12.3577 16.2117 12.2938C16.9834 11.1659 17.5816 9.92844 17.5816 9.92844C17.5816 9.92844 17.6364 10.3074 17.8236 10.9376C17.915 11.2572 18.1022 11.6043 18.2666 11.9422C17.5405 12.5313 17.093 13.2162 16.9332 13.6637C16.6455 14.4948 16.8693 14.8692 17.294 14.956C17.4857 14.9971 17.7597 14.9058 17.9606 14.819C18.2164 14.7368 18.5177 14.5952 18.8054 14.3852C19.294 14.0245 19.7643 13.5222 19.7369 12.8418C19.7232 12.5313 19.6411 12.2253 19.5269 11.9285C20.1434 11.6728 20.9379 11.5312 21.9516 11.65C24.1252 11.9057 24.5544 13.2619 24.4723 13.8327C24.3901 14.4035 23.9334 14.714 23.7827 14.8099C23.632 14.9058 23.5818 14.9377 23.5955 15.0062C23.6138 15.1067 23.6868 15.1021 23.8147 15.0838C23.9928 15.0519 24.9563 14.6226 24.9974 13.5724C25.0659 12.2299 23.7873 10.7641 21.527 10.7778ZM4.75933 16.4309C4.03785 17.2163 3.03325 17.5131 2.59945 17.262C2.13368 16.9926 2.31634 15.8327 3.20221 15.0017C3.74104 14.4948 4.43512 14.0245 4.89632 13.7368C5.00135 13.6728 5.1566 13.5815 5.34382 13.4674C5.37579 13.4491 5.39405 13.44 5.39405 13.44C5.43058 13.4171 5.46711 13.3943 5.50365 13.3715C5.82786 14.5587 5.51734 15.6044 4.75933 16.4309ZM10.0106 12.86C9.75948 13.4719 9.23435 15.0382 8.91471 14.9514C8.64073 14.8784 8.47177 13.6911 8.85991 12.5176C9.05626 11.9285 9.4718 11.2253 9.71382 10.9513C10.1065 10.5129 10.5403 10.3668 10.6454 10.5449C10.7778 10.7778 10.1659 12.4765 10.0106 12.86ZM14.3441 14.9332C14.2391 14.988 14.1386 15.0245 14.0929 14.9971C14.061 14.9788 14.1386 14.9058 14.1386 14.9058C14.1386 14.9058 14.682 14.3213 14.8966 14.0564C15.0199 13.9012 15.166 13.7185 15.3213 13.513C15.3213 13.5313 15.3213 13.5541 15.3213 13.5724C15.3213 14.271 14.6455 14.7414 14.3441 14.9332ZM17.6867 14.1706C17.609 14.1158 17.6227 13.9331 17.883 13.3623C17.9835 13.1386 18.2209 12.7641 18.6273 12.4034C18.673 12.5495 18.705 12.6911 18.7004 12.8235C18.6958 13.7048 18.0657 14.0336 17.6867 14.1706Z" fill="#127475"/>
</svg>
