<svg width="21" height="21" viewBox="0 0 21 21" fill="none" xmlns="http://www.w3.org/2000/svg">
<path fill-rule="evenodd" clip-rule="evenodd" d="M0 10.5L0 19C0 20.1046 0.895431 21 2 21H10.5L19 21C20.1046 21 21 20.1046 21 19V10.5L21 2C21 0.89543 20.1046 0 19 0L10.5 0H2C0.89543 0 0 0.895431 0 2L0 10.5Z" fill="#127475"/>
<path fill-rule="evenodd" clip-rule="evenodd" d="M4.64388 10.5697L4.63722 11.4297H6.00388H7.37055V15.313L7.37055 19.1963H8.33722H9.30388V15.313V11.4297H10.6705H12.0372V10.5863C12.0372 10.1197 12.0272 9.72965 12.0139 9.71965C12.0039 9.70632 10.3405 9.69965 8.32388 9.70299L4.65388 9.71299L4.64388 10.5697Z" fill="white"/>
<path fill-rule="evenodd" clip-rule="evenodd" d="M16.9449 9.68858C17.4783 9.82191 17.8849 10.0586 18.2583 10.4452C18.4516 10.6519 18.7383 11.0286 18.7616 11.1186C18.7683 11.1452 17.8549 11.7586 17.3016 12.1019C17.2816 12.1152 17.2016 12.0286 17.1116 11.8952C16.8416 11.5019 16.5583 11.3319 16.1249 11.3019C15.4883 11.2586 15.0783 11.5919 15.0816 12.1486C15.0816 12.3119 15.1049 12.4086 15.1716 12.5419C15.3116 12.8319 15.5716 13.0052 16.3883 13.3586C17.8916 14.0052 18.5349 14.4319 18.9349 15.0386C19.3816 15.7152 19.4816 16.7952 19.1783 17.5986C18.8449 18.4719 18.0183 19.0652 16.8549 19.2619C16.4949 19.3252 15.6416 19.3152 15.2549 19.2452C14.4116 19.0952 13.6116 18.6786 13.1183 18.1319C12.9249 17.9186 12.5483 17.3619 12.5716 17.3219C12.5816 17.3086 12.6683 17.2552 12.7649 17.1986C12.8583 17.1452 13.2116 16.9419 13.5449 16.7486L14.1483 16.3986L14.2749 16.5852C14.4516 16.8552 14.8383 17.2252 15.0716 17.3486C15.7416 17.7019 16.6616 17.6519 17.1149 17.2452C17.3083 17.0686 17.3883 16.8852 17.3883 16.6152C17.3883 16.3719 17.3583 16.2652 17.2316 16.0819C17.0683 15.8486 16.7349 15.6519 15.7883 15.2419C14.7049 14.7752 14.2383 14.4852 13.8116 14.0252C13.5649 13.7586 13.3316 13.3319 13.2349 12.9752C13.1549 12.6786 13.1349 11.9352 13.1983 11.6352C13.4216 10.5886 14.2116 9.85858 15.3516 9.64191C15.7216 9.57191 16.5816 9.59858 16.9449 9.68858Z" fill="white"/>
</svg>
