<svg width="22" height="22" viewBox="0 0 22 22" fill="none" xmlns="http://www.w3.org/2000/svg">
<g clip-path="url(#clip0_239_18)">
<path d="M0.794922 10.9963V21.4963H21.7956V0.495605H0.794922V10.9963ZM17.7186 10.1595C18.2518 10.2928 18.6587 10.5297 19.0321 10.9162C19.2257 11.1229 19.5122 11.4996 19.5355 11.5895C19.542 11.6158 18.6288 12.2294 18.0753 12.5729C18.0556 12.586 17.9752 12.4997 17.885 12.3662C17.6149 11.9724 17.3318 11.8028 16.8983 11.7729C16.2617 11.7296 15.8483 12.063 15.8549 12.6195C15.8549 12.7829 15.8778 12.8794 15.9448 13.0132C16.0849 13.3033 16.3451 13.4766 17.1615 13.8303C18.6649 14.4767 19.3081 14.9032 19.7077 15.5103C20.154 16.1869 20.2544 17.2671 19.9512 18.0703C19.6178 18.9438 18.7913 19.537 17.6281 19.7339C17.2681 19.7972 16.4147 19.7874 16.0281 19.7175C15.1848 19.5675 14.3849 19.1508 13.8914 18.6042C13.6978 18.3909 13.3214 17.8341 13.3447 17.7937C13.3546 17.7806 13.4415 17.7271 13.5383 17.6703L14.3183 17.2208L14.922 16.8707L15.0487 17.0577C15.2252 17.3278 15.6121 17.6976 15.8454 17.8209C16.5154 18.1743 17.4355 18.1241 17.8886 17.7176C18.0822 17.541 18.1619 17.3576 18.1619 17.0876C18.1619 16.8441 18.1324 16.7375 18.0054 16.5544C17.842 16.3214 17.5086 16.1245 16.5617 15.7144C15.4782 15.2478 15.0116 14.9577 14.585 14.4977C14.3383 14.2309 14.105 13.8044 14.0082 13.4477C13.9281 13.1511 13.9081 12.4075 13.9714 12.1076C14.1946 11.0576 14.9847 10.3308 16.1249 10.1143C16.495 10.0444 17.3554 10.0709 17.7183 10.1609L17.7186 10.1595ZM12.7885 11.0356L12.7951 11.8953H10.0618V19.662H8.12852V11.8953H5.39523V11.052L5.4182 10.1858C5.42805 10.1727 7.09164 10.1661 9.1083 10.1694L12.7784 10.1792L12.7885 11.0356Z" fill="#127475"/>
</g>
<defs>
<clipPath id="clip0_239_18">
<rect x="0.794922" y="0.496094" width="21" height="21" rx="2" fill="white"/>
</clipPath>
</defs>
</svg>
